<?xml version="1.0" encoding="utf-8" standalone="no"?>
<!DOCTYPE svg PUBLIC "-//W3C//DTD SVG 1.1//EN"
  "http://www.w3.org/Graphics/SVG/1.1/DTD/svg11.dtd">
<!-- Created with matplotlib (http://matplotlib.org/) -->
<svg height="396pt" version="1.1" viewBox="0 0 576 396" width="576pt" xmlns="http://www.w3.org/2000/svg" xmlns:xlink="http://www.w3.org/1999/xlink">
 <defs>
  <style type="text/css">
*{stroke-linecap:butt;stroke-linejoin:round;}
  </style>
 </defs>
 <g id="figure_1">
  <g id="patch_1">
   <path d="M 0 396 
L 576 396 
L 576 0 
L 0 0 
z
" style="fill:#f0f0f0;"/>
  </g>
  <g id="axes_1">
   <g id="patch_2">
    <path d="M 46.08 368.28 
L 547.2 368.28 
L 547.2 47.52 
L 46.08 47.52 
z
" style="fill:#f0f0f0;"/>
   </g>
   <g id="matplotlib.axis_1">
    <g id="xtick_1">
     <g id="line2d_1">
      <path clip-path="url(#p1d95a87ccf)" d="M 66.767684 368.28 
L 66.767684 47.52 
" style="fill:none;stroke:#ff0000;"/>
     </g>
     <g id="line2d_2"/>
     <g id="text_1">
      <!-- 0 -->
      <defs>
       <path d="M 4.15625 35.296875 
Q 4.15625 48 6.765625 55.734375 
Q 9.375 63.484375 14.515625 67.671875 
Q 19.671875 71.875 27.484375 71.875 
Q 33.25 71.875 37.59375 69.546875 
Q 41.9375 67.234375 44.765625 62.859375 
Q 47.609375 58.5 49.21875 52.21875 
Q 50.828125 45.953125 50.828125 35.296875 
Q 50.828125 22.703125 48.234375 14.96875 
Q 45.65625 7.234375 40.5 3 
Q 35.359375 -1.21875 27.484375 -1.21875 
Q 17.140625 -1.21875 11.234375 6.203125 
Q 4.15625 15.140625 4.15625 35.296875 
z
M 13.1875 35.296875 
Q 13.1875 17.671875 17.3125 11.828125 
Q 21.4375 6 27.484375 6 
Q 33.546875 6 37.671875 11.859375 
Q 41.796875 17.71875 41.796875 35.296875 
Q 41.796875 52.984375 37.671875 58.78125 
Q 33.546875 64.59375 27.390625 64.59375 
Q 21.34375 64.59375 17.71875 59.46875 
Q 13.1875 52.9375 13.1875 35.296875 
z
" id="ArialMT-30"/>
      </defs>
      <g style="fill:#555555;" transform="translate(62.318934 386.7325)scale(0.16 -0.16)">
       <use xlink:href="#ArialMT-30"/>
      </g>
     </g>
    </g>
    <g id="xtick_2">
     <g id="line2d_3">
      <path clip-path="url(#p1d95a87ccf)" d="M 138.361155 368.28 
L 138.361155 47.52 
" style="fill:none;stroke:#ff0000;"/>
     </g>
     <g id="line2d_4"/>
     <g id="text_2">
      <!-- 10000 -->
      <defs>
       <path d="M 37.25 0 
L 28.46875 0 
L 28.46875 56 
Q 25.296875 52.984375 20.140625 49.953125 
Q 14.984375 46.921875 10.890625 45.40625 
L 10.890625 53.90625 
Q 18.265625 57.375 23.78125 62.296875 
Q 29.296875 67.234375 31.59375 71.875 
L 37.25 71.875 
z
" id="ArialMT-31"/>
      </defs>
      <g style="fill:#555555;" transform="translate(116.117405 386.7325)scale(0.16 -0.16)">
       <use xlink:href="#ArialMT-31"/>
       <use x="55.615234" xlink:href="#ArialMT-30"/>
       <use x="111.230469" xlink:href="#ArialMT-30"/>
       <use x="166.845703" xlink:href="#ArialMT-30"/>
       <use x="222.460938" xlink:href="#ArialMT-30"/>
      </g>
     </g>
    </g>
    <g id="xtick_3">
     <g id="line2d_5">
      <path clip-path="url(#p1d95a87ccf)" d="M 209.954626 368.28 
L 209.954626 47.52 
" style="fill:none;stroke:#ff0000;"/>
     </g>
     <g id="line2d_6"/>
     <g id="text_3">
      <!-- 20000 -->
      <defs>
       <path d="M 50.34375 8.453125 
L 50.34375 0 
L 3.03125 0 
Q 2.9375 3.171875 4.046875 6.109375 
Q 5.859375 10.9375 9.828125 15.625 
Q 13.8125 20.3125 21.34375 26.46875 
Q 33.015625 36.03125 37.109375 41.625 
Q 41.21875 47.21875 41.21875 52.203125 
Q 41.21875 57.421875 37.46875 61 
Q 33.734375 64.59375 27.734375 64.59375 
Q 21.390625 64.59375 17.578125 60.78125 
Q 13.765625 56.984375 13.71875 50.25 
L 4.6875 51.171875 
Q 5.609375 61.28125 11.65625 66.578125 
Q 17.71875 71.875 27.9375 71.875 
Q 38.234375 71.875 44.234375 66.15625 
Q 50.25 60.453125 50.25 52 
Q 50.25 47.703125 48.484375 43.546875 
Q 46.734375 39.40625 42.65625 34.8125 
Q 38.578125 30.21875 29.109375 22.21875 
Q 21.1875 15.578125 18.9375 13.203125 
Q 16.703125 10.84375 15.234375 8.453125 
z
" id="ArialMT-32"/>
      </defs>
      <g style="fill:#555555;" transform="translate(187.710876 386.7325)scale(0.16 -0.16)">
       <use xlink:href="#ArialMT-32"/>
       <use x="55.615234" xlink:href="#ArialMT-30"/>
       <use x="111.230469" xlink:href="#ArialMT-30"/>
       <use x="166.845703" xlink:href="#ArialMT-30"/>
       <use x="222.460938" xlink:href="#ArialMT-30"/>
      </g>
     </g>
    </g>
    <g id="xtick_4">
     <g id="line2d_7">
      <path clip-path="url(#p1d95a87ccf)" d="M 281.548096 368.28 
L 281.548096 47.52 
" style="fill:none;stroke:#ff0000;"/>
     </g>
     <g id="line2d_8"/>
     <g id="text_4">
      <!-- 30000 -->
      <defs>
       <path d="M 4.203125 18.890625 
L 12.984375 20.0625 
Q 14.5 12.59375 18.140625 9.296875 
Q 21.78125 6 27 6 
Q 33.203125 6 37.46875 10.296875 
Q 41.75 14.59375 41.75 20.953125 
Q 41.75 27 37.796875 30.921875 
Q 33.84375 34.859375 27.734375 34.859375 
Q 25.25 34.859375 21.53125 33.890625 
L 22.515625 41.609375 
Q 23.390625 41.5 23.921875 41.5 
Q 29.546875 41.5 34.03125 44.421875 
Q 38.53125 47.359375 38.53125 53.46875 
Q 38.53125 58.296875 35.25 61.46875 
Q 31.984375 64.65625 26.8125 64.65625 
Q 21.6875 64.65625 18.265625 61.421875 
Q 14.84375 58.203125 13.875 51.765625 
L 5.078125 53.328125 
Q 6.6875 62.15625 12.390625 67.015625 
Q 18.109375 71.875 26.609375 71.875 
Q 32.46875 71.875 37.390625 69.359375 
Q 42.328125 66.84375 44.9375 62.5 
Q 47.5625 58.15625 47.5625 53.265625 
Q 47.5625 48.640625 45.0625 44.828125 
Q 42.578125 41.015625 37.703125 38.765625 
Q 44.046875 37.3125 47.5625 32.6875 
Q 51.078125 28.078125 51.078125 21.140625 
Q 51.078125 11.765625 44.234375 5.25 
Q 37.40625 -1.265625 26.953125 -1.265625 
Q 17.53125 -1.265625 11.296875 4.34375 
Q 5.078125 9.96875 4.203125 18.890625 
z
" id="ArialMT-33"/>
      </defs>
      <g style="fill:#555555;" transform="translate(259.304346 386.7325)scale(0.16 -0.16)">
       <use xlink:href="#ArialMT-33"/>
       <use x="55.615234" xlink:href="#ArialMT-30"/>
       <use x="111.230469" xlink:href="#ArialMT-30"/>
       <use x="166.845703" xlink:href="#ArialMT-30"/>
       <use x="222.460938" xlink:href="#ArialMT-30"/>
      </g>
     </g>
    </g>
    <g id="xtick_5">
     <g id="line2d_9">
      <path clip-path="url(#p1d95a87ccf)" d="M 353.141567 368.28 
L 353.141567 47.52 
" style="fill:none;stroke:#ff0000;"/>
     </g>
     <g id="line2d_10"/>
     <g id="text_5">
      <!-- 40000 -->
      <defs>
       <path d="M 32.328125 0 
L 32.328125 17.140625 
L 1.265625 17.140625 
L 1.265625 25.203125 
L 33.9375 71.578125 
L 41.109375 71.578125 
L 41.109375 25.203125 
L 50.78125 25.203125 
L 50.78125 17.140625 
L 41.109375 17.140625 
L 41.109375 0 
z
M 32.328125 25.203125 
L 32.328125 57.46875 
L 9.90625 25.203125 
z
" id="ArialMT-34"/>
      </defs>
      <g style="fill:#555555;" transform="translate(330.897817 386.7325)scale(0.16 -0.16)">
       <use xlink:href="#ArialMT-34"/>
       <use x="55.615234" xlink:href="#ArialMT-30"/>
       <use x="111.230469" xlink:href="#ArialMT-30"/>
       <use x="166.845703" xlink:href="#ArialMT-30"/>
       <use x="222.460938" xlink:href="#ArialMT-30"/>
      </g>
     </g>
    </g>
    <g id="xtick_6">
     <g id="line2d_11">
      <path clip-path="url(#p1d95a87ccf)" d="M 424.735038 368.28 
L 424.735038 47.52 
" style="fill:none;stroke:#ff0000;"/>
     </g>
     <g id="line2d_12"/>
     <g id="text_6">
      <!-- 50000 -->
      <defs>
       <path d="M 4.15625 18.75 
L 13.375 19.53125 
Q 14.40625 12.796875 18.140625 9.390625 
Q 21.875 6 27.15625 6 
Q 33.5 6 37.890625 10.78125 
Q 42.28125 15.578125 42.28125 23.484375 
Q 42.28125 31 38.0625 35.34375 
Q 33.84375 39.703125 27 39.703125 
Q 22.75 39.703125 19.328125 37.765625 
Q 15.921875 35.84375 13.96875 32.765625 
L 5.71875 33.84375 
L 12.640625 70.609375 
L 48.25 70.609375 
L 48.25 62.203125 
L 19.671875 62.203125 
L 15.828125 42.96875 
Q 22.265625 47.46875 29.34375 47.46875 
Q 38.71875 47.46875 45.15625 40.96875 
Q 51.609375 34.46875 51.609375 24.265625 
Q 51.609375 14.546875 45.953125 7.46875 
Q 39.0625 -1.21875 27.15625 -1.21875 
Q 17.390625 -1.21875 11.203125 4.25 
Q 5.03125 9.71875 4.15625 18.75 
z
" id="ArialMT-35"/>
      </defs>
      <g style="fill:#555555;" transform="translate(402.491288 386.7325)scale(0.16 -0.16)">
       <use xlink:href="#ArialMT-35"/>
       <use x="55.615234" xlink:href="#ArialMT-30"/>
       <use x="111.230469" xlink:href="#ArialMT-30"/>
       <use x="166.845703" xlink:href="#ArialMT-30"/>
       <use x="222.460938" xlink:href="#ArialMT-30"/>
      </g>
     </g>
    </g>
    <g id="xtick_7">
     <g id="line2d_13">
      <path clip-path="url(#p1d95a87ccf)" d="M 496.328508 368.28 
L 496.328508 47.52 
" style="fill:none;stroke:#ff0000;"/>
     </g>
     <g id="line2d_14"/>
     <g id="text_7">
      <!-- 60000 -->
      <defs>
       <path d="M 49.75 54.046875 
L 41.015625 53.375 
Q 39.84375 58.546875 37.703125 60.890625 
Q 34.125 64.65625 28.90625 64.65625 
Q 24.703125 64.65625 21.53125 62.3125 
Q 17.390625 59.28125 14.984375 53.46875 
Q 12.59375 47.65625 12.5 36.921875 
Q 15.671875 41.75 20.265625 44.09375 
Q 24.859375 46.4375 29.890625 46.4375 
Q 38.671875 46.4375 44.84375 39.96875 
Q 51.03125 33.5 51.03125 23.25 
Q 51.03125 16.5 48.125 10.71875 
Q 45.21875 4.9375 40.140625 1.859375 
Q 35.0625 -1.21875 28.609375 -1.21875 
Q 17.625 -1.21875 10.6875 6.859375 
Q 3.765625 14.9375 3.765625 33.5 
Q 3.765625 54.25 11.421875 63.671875 
Q 18.109375 71.875 29.4375 71.875 
Q 37.890625 71.875 43.28125 67.140625 
Q 48.6875 62.40625 49.75 54.046875 
z
M 13.875 23.1875 
Q 13.875 18.65625 15.796875 14.5 
Q 17.71875 10.359375 21.1875 8.171875 
Q 24.65625 6 28.46875 6 
Q 34.03125 6 38.03125 10.484375 
Q 42.046875 14.984375 42.046875 22.703125 
Q 42.046875 30.125 38.078125 34.390625 
Q 34.125 38.671875 28.125 38.671875 
Q 22.171875 38.671875 18.015625 34.390625 
Q 13.875 30.125 13.875 23.1875 
z
" id="ArialMT-36"/>
      </defs>
      <g style="fill:#555555;" transform="translate(474.084758 386.7325)scale(0.16 -0.16)">
       <use xlink:href="#ArialMT-36"/>
       <use x="55.615234" xlink:href="#ArialMT-30"/>
       <use x="111.230469" xlink:href="#ArialMT-30"/>
       <use x="166.845703" xlink:href="#ArialMT-30"/>
       <use x="222.460938" xlink:href="#ArialMT-30"/>
      </g>
     </g>
    </g>
    <g id="text_8">
     <!-- gdp_per_capita -->
     <defs>
      <path d="M 4.984375 -4.296875 
L 13.53125 -5.5625 
Q 14.0625 -9.515625 16.5 -11.328125 
Q 19.78125 -13.765625 25.4375 -13.765625 
Q 31.546875 -13.765625 34.859375 -11.328125 
Q 38.1875 -8.890625 39.359375 -4.5 
Q 40.046875 -1.8125 39.984375 6.78125 
Q 34.234375 0 25.640625 0 
Q 14.9375 0 9.078125 7.71875 
Q 3.21875 15.4375 3.21875 26.21875 
Q 3.21875 33.640625 5.90625 39.90625 
Q 8.59375 46.1875 13.6875 49.609375 
Q 18.796875 53.03125 25.6875 53.03125 
Q 34.859375 53.03125 40.828125 45.609375 
L 40.828125 51.859375 
L 48.921875 51.859375 
L 48.921875 7.03125 
Q 48.921875 -5.078125 46.453125 -10.125 
Q 44 -15.1875 38.640625 -18.109375 
Q 33.296875 -21.046875 25.484375 -21.046875 
Q 16.21875 -21.046875 10.5 -16.875 
Q 4.78125 -12.703125 4.984375 -4.296875 
z
M 12.25 26.859375 
Q 12.25 16.65625 16.296875 11.96875 
Q 20.359375 7.28125 26.46875 7.28125 
Q 32.515625 7.28125 36.609375 11.9375 
Q 40.71875 16.609375 40.71875 26.5625 
Q 40.71875 36.078125 36.5 40.90625 
Q 32.28125 45.75 26.3125 45.75 
Q 20.453125 45.75 16.34375 40.984375 
Q 12.25 36.234375 12.25 26.859375 
z
" id="ArialMT-67"/>
      <path d="M 40.234375 0 
L 40.234375 6.546875 
Q 35.296875 -1.171875 25.734375 -1.171875 
Q 19.53125 -1.171875 14.328125 2.25 
Q 9.125 5.671875 6.265625 11.796875 
Q 3.421875 17.921875 3.421875 25.875 
Q 3.421875 33.640625 6 39.96875 
Q 8.59375 46.296875 13.765625 49.65625 
Q 18.953125 53.03125 25.34375 53.03125 
Q 30.03125 53.03125 33.6875 51.046875 
Q 37.359375 49.078125 39.65625 45.90625 
L 39.65625 71.578125 
L 48.390625 71.578125 
L 48.390625 0 
z
M 12.453125 25.875 
Q 12.453125 15.921875 16.640625 10.984375 
Q 20.84375 6.0625 26.5625 6.0625 
Q 32.328125 6.0625 36.34375 10.765625 
Q 40.375 15.484375 40.375 25.140625 
Q 40.375 35.796875 36.265625 40.765625 
Q 32.171875 45.75 26.171875 45.75 
Q 20.3125 45.75 16.375 40.96875 
Q 12.453125 36.1875 12.453125 25.875 
z
" id="ArialMT-64"/>
      <path d="M 6.59375 -19.875 
L 6.59375 51.859375 
L 14.59375 51.859375 
L 14.59375 45.125 
Q 17.4375 49.078125 21 51.046875 
Q 24.5625 53.03125 29.640625 53.03125 
Q 36.28125 53.03125 41.359375 49.609375 
Q 46.4375 46.1875 49.015625 39.953125 
Q 51.609375 33.734375 51.609375 26.3125 
Q 51.609375 18.359375 48.75 11.984375 
Q 45.90625 5.609375 40.453125 2.21875 
Q 35.015625 -1.171875 29 -1.171875 
Q 24.609375 -1.171875 21.109375 0.6875 
Q 17.625 2.546875 15.375 5.375 
L 15.375 -19.875 
z
M 14.546875 25.640625 
Q 14.546875 15.625 18.59375 10.84375 
Q 22.65625 6.0625 28.421875 6.0625 
Q 34.28125 6.0625 38.453125 11.015625 
Q 42.625 15.96875 42.625 26.375 
Q 42.625 36.28125 38.546875 41.203125 
Q 34.46875 46.140625 28.8125 46.140625 
Q 23.1875 46.140625 18.859375 40.890625 
Q 14.546875 35.640625 14.546875 25.640625 
z
" id="ArialMT-70"/>
      <path d="M -1.515625 -19.875 
L -1.515625 -13.53125 
L 56.734375 -13.53125 
L 56.734375 -19.875 
z
" id="ArialMT-5f"/>
      <path d="M 42.09375 16.703125 
L 51.171875 15.578125 
Q 49.03125 7.625 43.21875 3.21875 
Q 37.40625 -1.171875 28.375 -1.171875 
Q 17 -1.171875 10.328125 5.828125 
Q 3.65625 12.84375 3.65625 25.484375 
Q 3.65625 38.578125 10.390625 45.796875 
Q 17.140625 53.03125 27.875 53.03125 
Q 38.28125 53.03125 44.875 45.953125 
Q 51.46875 38.875 51.46875 26.03125 
Q 51.46875 25.25 51.421875 23.6875 
L 12.75 23.6875 
Q 13.234375 15.140625 17.578125 10.59375 
Q 21.921875 6.0625 28.421875 6.0625 
Q 33.25 6.0625 36.671875 8.59375 
Q 40.09375 11.140625 42.09375 16.703125 
z
M 13.234375 30.90625 
L 42.1875 30.90625 
Q 41.609375 37.453125 38.875 40.71875 
Q 34.671875 45.796875 27.984375 45.796875 
Q 21.921875 45.796875 17.796875 41.75 
Q 13.671875 37.703125 13.234375 30.90625 
z
" id="ArialMT-65"/>
      <path d="M 6.5 0 
L 6.5 51.859375 
L 14.40625 51.859375 
L 14.40625 44 
Q 17.4375 49.515625 20 51.265625 
Q 22.5625 53.03125 25.640625 53.03125 
Q 30.078125 53.03125 34.671875 50.203125 
L 31.640625 42.046875 
Q 28.421875 43.953125 25.203125 43.953125 
Q 22.3125 43.953125 20.015625 42.21875 
Q 17.71875 40.484375 16.75 37.40625 
Q 15.28125 32.71875 15.28125 27.15625 
L 15.28125 0 
z
" id="ArialMT-72"/>
      <path d="M 40.4375 19 
L 49.078125 17.875 
Q 47.65625 8.9375 41.8125 3.875 
Q 35.984375 -1.171875 27.484375 -1.171875 
Q 16.84375 -1.171875 10.375 5.78125 
Q 3.90625 12.75 3.90625 25.734375 
Q 3.90625 34.125 6.6875 40.421875 
Q 9.46875 46.734375 15.15625 49.875 
Q 20.84375 53.03125 27.546875 53.03125 
Q 35.984375 53.03125 41.359375 48.75 
Q 46.734375 44.484375 48.25 36.625 
L 39.703125 35.296875 
Q 38.484375 40.53125 35.375 43.15625 
Q 32.28125 45.796875 27.875 45.796875 
Q 21.234375 45.796875 17.078125 41.03125 
Q 12.9375 36.28125 12.9375 25.984375 
Q 12.9375 15.53125 16.9375 10.796875 
Q 20.953125 6.0625 27.390625 6.0625 
Q 32.5625 6.0625 36.03125 9.234375 
Q 39.5 12.40625 40.4375 19 
z
" id="ArialMT-63"/>
      <path d="M 40.4375 6.390625 
Q 35.546875 2.25 31.03125 0.53125 
Q 26.515625 -1.171875 21.34375 -1.171875 
Q 12.796875 -1.171875 8.203125 3 
Q 3.609375 7.171875 3.609375 13.671875 
Q 3.609375 17.484375 5.34375 20.625 
Q 7.078125 23.78125 9.890625 25.6875 
Q 12.703125 27.59375 16.21875 28.5625 
Q 18.796875 29.25 24.03125 29.890625 
Q 34.671875 31.15625 39.703125 32.90625 
Q 39.75 34.71875 39.75 35.203125 
Q 39.75 40.578125 37.25 42.78125 
Q 33.890625 45.75 27.25 45.75 
Q 21.046875 45.75 18.09375 43.578125 
Q 15.140625 41.40625 13.71875 35.890625 
L 5.125 37.0625 
Q 6.296875 42.578125 8.984375 45.96875 
Q 11.671875 49.359375 16.75 51.1875 
Q 21.828125 53.03125 28.515625 53.03125 
Q 35.15625 53.03125 39.296875 51.46875 
Q 43.453125 49.90625 45.40625 47.53125 
Q 47.359375 45.171875 48.140625 41.546875 
Q 48.578125 39.3125 48.578125 33.453125 
L 48.578125 21.734375 
Q 48.578125 9.46875 49.140625 6.21875 
Q 49.703125 2.984375 51.375 0 
L 42.1875 0 
Q 40.828125 2.734375 40.4375 6.390625 
z
M 39.703125 26.03125 
Q 34.90625 24.078125 25.34375 22.703125 
Q 19.921875 21.921875 17.671875 20.9375 
Q 15.4375 19.96875 14.203125 18.09375 
Q 12.984375 16.21875 12.984375 13.921875 
Q 12.984375 10.40625 15.640625 8.0625 
Q 18.3125 5.71875 23.4375 5.71875 
Q 28.515625 5.71875 32.46875 7.9375 
Q 36.421875 10.15625 38.28125 14.015625 
Q 39.703125 17 39.703125 22.796875 
z
" id="ArialMT-61"/>
      <path d="M 6.640625 61.46875 
L 6.640625 71.578125 
L 15.4375 71.578125 
L 15.4375 61.46875 
z
M 6.640625 0 
L 6.640625 51.859375 
L 15.4375 51.859375 
L 15.4375 0 
z
" id="ArialMT-69"/>
      <path d="M 25.78125 7.859375 
L 27.046875 0.09375 
Q 23.34375 -0.6875 20.40625 -0.6875 
Q 15.625 -0.6875 12.984375 0.828125 
Q 10.359375 2.34375 9.28125 4.8125 
Q 8.203125 7.28125 8.203125 15.1875 
L 8.203125 45.015625 
L 1.765625 45.015625 
L 1.765625 51.859375 
L 8.203125 51.859375 
L 8.203125 64.703125 
L 16.9375 69.96875 
L 16.9375 51.859375 
L 25.78125 51.859375 
L 25.78125 45.015625 
L 16.9375 45.015625 
L 16.9375 14.703125 
Q 16.9375 10.9375 17.40625 9.859375 
Q 17.875 8.796875 18.921875 8.15625 
Q 19.96875 7.515625 21.921875 7.515625 
Q 23.390625 7.515625 25.78125 7.859375 
z
" id="ArialMT-74"/>
     </defs>
     <g style="fill:#555555;" transform="translate(227.700937 408.228125)scale(0.2 -0.2)">
      <use xlink:href="#ArialMT-67"/>
      <use x="55.615234" xlink:href="#ArialMT-64"/>
      <use x="111.230469" xlink:href="#ArialMT-70"/>
      <use x="166.845703" xlink:href="#ArialMT-5f"/>
      <use x="222.460938" xlink:href="#ArialMT-70"/>
      <use x="278.076172" xlink:href="#ArialMT-65"/>
      <use x="333.691406" xlink:href="#ArialMT-72"/>
      <use x="366.992188" xlink:href="#ArialMT-5f"/>
      <use x="422.607422" xlink:href="#ArialMT-63"/>
      <use x="472.607422" xlink:href="#ArialMT-61"/>
      <use x="528.222656" xlink:href="#ArialMT-70"/>
      <use x="583.837891" xlink:href="#ArialMT-69"/>
      <use x="606.054688" xlink:href="#ArialMT-74"/>
      <use x="633.837891" xlink:href="#ArialMT-61"/>
     </g>
    </g>
   </g>
   <g id="matplotlib.axis_2">
    <g id="ytick_1">
     <g id="line2d_15">
      <path clip-path="url(#p1d95a87ccf)" d="M 46.08 340.995235 
L 547.2 340.995235 
" style="fill:none;stroke:#ff0000;"/>
     </g>
     <g id="line2d_16"/>
     <g id="text_9">
      <!-- 40 -->
      <g style="fill:#555555;" transform="translate(21.285 346.721485)scale(0.16 -0.16)">
       <use xlink:href="#ArialMT-34"/>
       <use x="55.615234" xlink:href="#ArialMT-30"/>
      </g>
     </g>
    </g>
    <g id="ytick_2">
     <g id="line2d_17">
      <path clip-path="url(#p1d95a87ccf)" d="M 46.08 273.559147 
L 547.2 273.559147 
" style="fill:none;stroke:#ff0000;"/>
     </g>
     <g id="line2d_18"/>
     <g id="text_10">
      <!-- 50 -->
      <g style="fill:#555555;" transform="translate(21.285 279.285397)scale(0.16 -0.16)">
       <use xlink:href="#ArialMT-35"/>
       <use x="55.615234" xlink:href="#ArialMT-30"/>
      </g>
     </g>
    </g>
    <g id="ytick_3">
     <g id="line2d_19">
      <path clip-path="url(#p1d95a87ccf)" d="M 46.08 206.123059 
L 547.2 206.123059 
" style="fill:none;stroke:#ff0000;"/>
     </g>
     <g id="line2d_20"/>
     <g id="text_11">
      <!-- 60 -->
      <g style="fill:#555555;" transform="translate(21.285 211.849309)scale(0.16 -0.16)">
       <use xlink:href="#ArialMT-36"/>
       <use x="55.615234" xlink:href="#ArialMT-30"/>
      </g>
     </g>
    </g>
    <g id="ytick_4">
     <g id="line2d_21">
      <path clip-path="url(#p1d95a87ccf)" d="M 46.08 138.686971 
L 547.2 138.686971 
" style="fill:none;stroke:#ff0000;"/>
     </g>
     <g id="line2d_22"/>
     <g id="text_12">
      <!-- 70 -->
      <defs>
       <path d="M 4.734375 62.203125 
L 4.734375 70.65625 
L 51.078125 70.65625 
L 51.078125 63.8125 
Q 44.234375 56.546875 37.515625 44.484375 
Q 30.8125 32.421875 27.15625 19.671875 
Q 24.515625 10.6875 23.78125 0 
L 14.75 0 
Q 14.890625 8.453125 18.0625 20.40625 
Q 21.234375 32.375 27.171875 43.484375 
Q 33.109375 54.59375 39.796875 62.203125 
z
" id="ArialMT-37"/>
      </defs>
      <g style="fill:#555555;" transform="translate(21.285 144.413221)scale(0.16 -0.16)">
       <use xlink:href="#ArialMT-37"/>
       <use x="55.615234" xlink:href="#ArialMT-30"/>
      </g>
     </g>
    </g>
    <g id="ytick_5">
     <g id="line2d_23">
      <path clip-path="url(#p1d95a87ccf)" d="M 46.08 71.250883 
L 547.2 71.250883 
" style="fill:none;stroke:#ff0000;"/>
     </g>
     <g id="line2d_24"/>
     <g id="text_13">
      <!-- 80 -->
      <defs>
       <path d="M 17.671875 38.8125 
Q 12.203125 40.828125 9.5625 44.53125 
Q 6.9375 48.25 6.9375 53.421875 
Q 6.9375 61.234375 12.546875 66.546875 
Q 18.171875 71.875 27.484375 71.875 
Q 36.859375 71.875 42.578125 66.421875 
Q 48.296875 60.984375 48.296875 53.171875 
Q 48.296875 48.1875 45.671875 44.5 
Q 43.0625 40.828125 37.75 38.8125 
Q 44.34375 36.671875 47.78125 31.875 
Q 51.21875 27.09375 51.21875 20.453125 
Q 51.21875 11.28125 44.71875 5.03125 
Q 38.234375 -1.21875 27.640625 -1.21875 
Q 17.046875 -1.21875 10.546875 5.046875 
Q 4.046875 11.328125 4.046875 20.703125 
Q 4.046875 27.6875 7.59375 32.390625 
Q 11.140625 37.109375 17.671875 38.8125 
z
M 15.921875 53.71875 
Q 15.921875 48.640625 19.1875 45.40625 
Q 22.46875 42.1875 27.6875 42.1875 
Q 32.765625 42.1875 36.015625 45.375 
Q 39.265625 48.578125 39.265625 53.21875 
Q 39.265625 58.0625 35.90625 61.359375 
Q 32.5625 64.65625 27.59375 64.65625 
Q 22.5625 64.65625 19.234375 61.421875 
Q 15.921875 58.203125 15.921875 53.71875 
z
M 13.09375 20.65625 
Q 13.09375 16.890625 14.875 13.375 
Q 16.65625 9.859375 20.171875 7.921875 
Q 23.6875 6 27.734375 6 
Q 34.03125 6 38.125 10.046875 
Q 42.234375 14.109375 42.234375 20.359375 
Q 42.234375 26.703125 38.015625 30.859375 
Q 33.796875 35.015625 27.4375 35.015625 
Q 21.234375 35.015625 17.15625 30.90625 
Q 13.09375 26.8125 13.09375 20.65625 
z
" id="ArialMT-38"/>
      </defs>
      <g style="fill:#555555;" transform="translate(21.285 76.977133)scale(0.16 -0.16)">
       <use xlink:href="#ArialMT-38"/>
       <use x="55.615234" xlink:href="#ArialMT-30"/>
      </g>
     </g>
    </g>
    <g id="text_14">
     <!-- life_expectancy -->
     <defs>
      <path d="M 6.390625 0 
L 6.390625 71.578125 
L 15.1875 71.578125 
L 15.1875 0 
z
" id="ArialMT-6c"/>
      <path d="M 8.6875 0 
L 8.6875 45.015625 
L 0.921875 45.015625 
L 0.921875 51.859375 
L 8.6875 51.859375 
L 8.6875 57.375 
Q 8.6875 62.59375 9.625 65.140625 
Q 10.890625 68.5625 14.078125 70.671875 
Q 17.28125 72.796875 23.046875 72.796875 
Q 26.765625 72.796875 31.25 71.921875 
L 29.9375 64.265625 
Q 27.203125 64.75 24.75 64.75 
Q 20.75 64.75 19.09375 63.03125 
Q 17.4375 61.328125 17.4375 56.640625 
L 17.4375 51.859375 
L 27.546875 51.859375 
L 27.546875 45.015625 
L 17.4375 45.015625 
L 17.4375 0 
z
" id="ArialMT-66"/>
      <path d="M 0.734375 0 
L 19.671875 26.953125 
L 2.15625 51.859375 
L 13.140625 51.859375 
L 21.09375 39.703125 
Q 23.34375 36.234375 24.703125 33.890625 
Q 26.859375 37.109375 28.65625 39.59375 
L 37.40625 51.859375 
L 47.90625 51.859375 
L 29.984375 27.4375 
L 49.265625 0 
L 38.484375 0 
L 27.828125 16.109375 
L 25 20.453125 
L 11.375 0 
z
" id="ArialMT-78"/>
      <path d="M 6.59375 0 
L 6.59375 51.859375 
L 14.5 51.859375 
L 14.5 44.484375 
Q 20.21875 53.03125 31 53.03125 
Q 35.6875 53.03125 39.625 51.34375 
Q 43.5625 49.65625 45.515625 46.921875 
Q 47.46875 44.1875 48.25 40.4375 
Q 48.734375 37.984375 48.734375 31.890625 
L 48.734375 0 
L 39.9375 0 
L 39.9375 31.546875 
Q 39.9375 36.921875 38.90625 39.578125 
Q 37.890625 42.234375 35.28125 43.8125 
Q 32.671875 45.40625 29.15625 45.40625 
Q 23.53125 45.40625 19.453125 41.84375 
Q 15.375 38.28125 15.375 28.328125 
L 15.375 0 
z
" id="ArialMT-6e"/>
      <path d="M 6.203125 -19.96875 
L 5.21875 -11.71875 
Q 8.109375 -12.5 10.25 -12.5 
Q 13.1875 -12.5 14.9375 -11.515625 
Q 16.703125 -10.546875 17.828125 -8.796875 
Q 18.65625 -7.46875 20.515625 -2.25 
Q 20.75 -1.515625 21.296875 -0.09375 
L 1.609375 51.859375 
L 11.078125 51.859375 
L 21.875 21.828125 
Q 23.96875 16.109375 25.640625 9.8125 
Q 27.15625 15.875 29.25 21.625 
L 40.328125 51.859375 
L 49.125 51.859375 
L 29.390625 -0.875 
Q 26.21875 -9.421875 24.46875 -12.640625 
Q 22.125 -17 19.09375 -19.015625 
Q 16.0625 -21.046875 11.859375 -21.046875 
Q 9.328125 -21.046875 6.203125 -19.96875 
z
" id="ArialMT-79"/>
     </defs>
     <g style="fill:#555555;" transform="translate(13.075625 276.826563)rotate(-90)scale(0.2 -0.2)">
      <use xlink:href="#ArialMT-6c"/>
      <use x="22.216797" xlink:href="#ArialMT-69"/>
      <use x="44.433594" xlink:href="#ArialMT-66"/>
      <use x="72.216797" xlink:href="#ArialMT-65"/>
      <use x="127.832031" xlink:href="#ArialMT-5f"/>
      <use x="183.447266" xlink:href="#ArialMT-65"/>
      <use x="239.0625" xlink:href="#ArialMT-78"/>
      <use x="289.0625" xlink:href="#ArialMT-70"/>
      <use x="344.677734" xlink:href="#ArialMT-65"/>
      <use x="400.292969" xlink:href="#ArialMT-63"/>
      <use x="450.292969" xlink:href="#ArialMT-74"/>
      <use x="478.076172" xlink:href="#ArialMT-61"/>
      <use x="533.691406" xlink:href="#ArialMT-6e"/>
      <use x="589.306641" xlink:href="#ArialMT-63"/>
      <use x="639.306641" xlink:href="#ArialMT-79"/>
     </g>
    </g>
   </g>
   <g id="PathCollection_1">
    <defs>
     <path d="M 0 2.236068 
C 0.593012 2.236068 1.161816 2.000462 1.581139 1.581139 
C 2.000462 1.161816 2.236068 0.593012 2.236068 0 
C 2.236068 -0.593012 2.000462 -1.161816 1.581139 -1.581139 
C 1.161816 -2.000462 0.593012 -2.236068 0 -2.236068 
C -0.593012 -2.236068 -1.161816 -2.000462 -1.581139 -1.581139 
C -2.000462 -1.161816 -2.236068 -0.593012 -2.236068 0 
C -2.236068 0.593012 -2.000462 1.161816 -1.581139 1.581139 
C -1.161816 2.000462 -0.593012 2.236068 0 2.236068 
z
" id="m3e854dca02" style="stroke:#348abd;stroke-width:0.5;"/>
    </defs>
    <g clip-path="url(#p1d95a87ccf)">
     <use style="fill:#348abd;stroke:#348abd;stroke-width:0.5;" x="71.514332" xlink:href="#m3e854dca02" y="240.764978"/>
     <use style="fill:#348abd;stroke:#348abd;stroke-width:0.5;" x="96.801145" xlink:href="#m3e854dca02" y="110.363814"/>
     <use style="fill:#348abd;stroke:#348abd;stroke-width:0.5;" x="103.266036" xlink:href="#m3e854dca02" y="145.680093"/>
     <use style="fill:#348abd;stroke:#348abd;stroke-width:0.5;" x="84.279447" xlink:href="#m3e854dca02" y="305.699187"/>
     <use style="fill:#348abd;stroke:#348abd;stroke-width:0.5;" x="157.963447" xlink:href="#m3e854dca02" y="114.787621"/>
     <use style="fill:#348abd;stroke:#348abd;stroke-width:0.5;" x="142.449142" xlink:href="#m3e854dca02" y="112.912898"/>
     <use style="fill:#348abd;stroke:#348abd;stroke-width:0.5;" x="81.902544" xlink:href="#m3e854dca02" y="128.612019"/>
     <use style="fill:#348abd;stroke:#348abd;stroke-width:0.5;" x="276.114152" xlink:href="#m3e854dca02" y="71.722935"/>
     <use style="fill:#348abd;stroke:#348abd;stroke-width:0.5;" x="295.924065" xlink:href="#m3e854dca02" y="82.512709"/>
     <use style="fill:#348abd;stroke:#348abd;stroke-width:0.5;" x="84.902311" xlink:href="#m3e854dca02" y="159.922595"/>
     <use style="fill:#348abd;stroke:#348abd;stroke-width:0.5;" x="229.485325" xlink:href="#m3e854dca02" y="122.704618"/>
     <use style="fill:#348abd;stroke:#348abd;stroke-width:0.5;" x="224.38071" xlink:href="#m3e854dca02" y="108.360962"/>
     <use style="fill:#348abd;stroke:#348abd;stroke-width:0.5;" x="74.463983" xlink:href="#m3e854dca02" y="170.32124"/>
     <use style="fill:#348abd;stroke:#348abd;stroke-width:0.5;" x="174.029022" xlink:href="#m3e854dca02" y="117.660399"/>
     <use style="fill:#348abd;stroke:#348abd;stroke-width:0.5;" x="109.265569" xlink:href="#m3e854dca02" y="145.498016"/>
     <use style="fill:#348abd;stroke:#348abd;stroke-width:0.5;" x="281.118536" xlink:href="#m3e854dca02" y="85.345025"/>
     <use style="fill:#348abd;stroke:#348abd;stroke-width:0.5;" x="113.625611" xlink:href="#m3e854dca02" y="135.820937"/>
     <use style="fill:#348abd;stroke:#348abd;stroke-width:0.5;" x="76.124951" xlink:href="#m3e854dca02" y="238.081021"/>
     <use style="fill:#348abd;stroke:#348abd;stroke-width:0.5;" x="87.687297" xlink:href="#m3e854dca02" y="204.052771"/>
     <use style="fill:#348abd;stroke:#348abd;stroke-width:0.5;" x="91.066508" xlink:href="#m3e854dca02" y="185.932694"/>
     <use style="fill:#348abd;stroke:#348abd;stroke-width:0.5;" x="107.812221" xlink:href="#m3e854dca02" y="105.764673"/>
     <use style="fill:#348abd;stroke:#348abd;stroke-width:0.5;" x="139.127205" xlink:href="#m3e854dca02" y="269.735521"/>
     <use style="fill:#348abd;stroke:#348abd;stroke-width:0.5;" x="124.443384" xlink:href="#m3e854dca02" y="136.926889"/>
     <use style="fill:#348abd;stroke:#348abd;stroke-width:0.5;" x="410.559531" xlink:href="#m3e854dca02" y="98.717601"/>
     <use style="fill:#348abd;stroke:#348abd;stroke-width:0.5;" x="116.217295" xlink:href="#m3e854dca02" y="127.964633"/>
     <use style="fill:#348abd;stroke:#348abd;stroke-width:0.5;" x="73.934191" xlink:href="#m3e854dca02" y="269.587162"/>
     <use style="fill:#348abd;stroke:#348abd;stroke-width:0.5;" x="69.939275" xlink:href="#m3e854dca02" y="285.353719"/>
     <use style="fill:#348abd;stroke:#348abd;stroke-width:0.5;" x="73.798163" xlink:href="#m3e854dca02" y="192.433533"/>
     <use style="fill:#348abd;stroke:#348abd;stroke-width:0.5;" x="79.675987" xlink:href="#m3e854dca02" y="260.341674"/>
     <use style="fill:#348abd;stroke:#348abd;stroke-width:0.5;" x="299.074178" xlink:href="#m3e854dca02" y="75.229612"/>
     <use style="fill:#348abd;stroke:#348abd;stroke-width:0.5;" x="83.169749" xlink:href="#m3e854dca02" y="139.799666"/>
     <use style="fill:#348abd;stroke:#348abd;stroke-width:0.5;" x="72.223107" xlink:href="#m3e854dca02" y="315.861805"/>
     <use style="fill:#348abd;stroke:#348abd;stroke-width:0.5;" x="74.04874" xlink:href="#m3e854dca02" y="295.759108"/>
     <use style="fill:#348abd;stroke:#348abd;stroke-width:0.5;" x="141.475471" xlink:href="#m3e854dca02" y="91.414273"/>
     <use style="fill:#348abd;stroke:#348abd;stroke-width:0.5;" x="91.15958" xlink:href="#m3e854dca02" y="124.363546"/>
     <use style="fill:#348abd;stroke:#348abd;stroke-width:0.5;" x="107.926771" xlink:href="#m3e854dca02" y="131.768028"/>
     <use style="fill:#348abd;stroke:#348abd;stroke-width:0.5;" x="74.571373" xlink:href="#m3e854dca02" y="220.284638"/>
     <use style="fill:#348abd;stroke:#348abd;stroke-width:0.5;" x="68.858214" xlink:href="#m3e854dca02" y="297.923806"/>
     <use style="fill:#348abd;stroke:#348abd;stroke-width:0.5;" x="91.274129" xlink:href="#m3e854dca02" y="257.873513"/>
     <use style="fill:#348abd;stroke:#348abd;stroke-width:0.5;" x="121.694195" xlink:href="#m3e854dca02" y="86.619567"/>
     <use style="fill:#348abd;stroke:#348abd;stroke-width:0.5;" x="79.267904" xlink:href="#m3e854dca02" y="297.640574"/>
     <use style="fill:#348abd;stroke:#348abd;stroke-width:0.5;" x="142.527895" xlink:href="#m3e854dca02" y="106.331136"/>
     <use style="fill:#348abd;stroke:#348abd;stroke-width:0.5;" x="110.547092" xlink:href="#m3e854dca02" y="93.61269"/>
     <use style="fill:#348abd;stroke:#348abd;stroke-width:0.5;" x="230.151144" xlink:href="#m3e854dca02" y="84.663921"/>
     <use style="fill:#348abd;stroke:#348abd;stroke-width:0.5;" x="187.20938" xlink:href="#m3e854dca02" y="104.631746"/>
     <use style="fill:#348abd;stroke:#348abd;stroke-width:0.5;" x="294.470718" xlink:href="#m3e854dca02" y="92.15607"/>
     <use style="fill:#348abd;stroke:#348abd;stroke-width:0.5;" x="80.327488" xlink:href="#m3e854dca02" y="226.198783"/>
     <use style="fill:#348abd;stroke:#348abd;stroke-width:0.5;" x="97.910844" xlink:href="#m3e854dca02" y="134.957755"/>
     <use style="fill:#348abd;stroke:#348abd;stroke-width:0.5;" x="106.974578" xlink:href="#m3e854dca02" y="116.07565"/>
     <use style="fill:#348abd;stroke:#348abd;stroke-width:0.5;" x="99.908302" xlink:href="#m3e854dca02" y="147.912228"/>
     <use style="fill:#348abd;stroke:#348abd;stroke-width:0.5;" x="105.005757" xlink:href="#m3e854dca02" y="140.608899"/>
     <use style="fill:#348abd;stroke:#348abd;stroke-width:0.5;" x="104.282663" xlink:href="#m3e854dca02" y="288.914345"/>
     <use style="fill:#348abd;stroke:#348abd;stroke-width:0.5;" x="72.072761" xlink:href="#m3e854dca02" y="232.214082"/>
     <use style="fill:#348abd;stroke:#348abd;stroke-width:0.5;" x="147.267383" xlink:href="#m3e854dca02" y="133.292084"/>
     <use style="fill:#348abd;stroke:#348abd;stroke-width:0.5;" x="70.43327" xlink:href="#m3e854dca02" y="258.419745"/>
     <use style="fill:#348abd;stroke:#348abd;stroke-width:0.5;" x="94.374127" xlink:href="#m3e854dca02" y="155.188582"/>
     <use style="fill:#348abd;stroke:#348abd;stroke-width:0.5;" x="261.294304" xlink:href="#m3e854dca02" y="86.356566"/>
     <use style="fill:#348abd;stroke:#348abd;stroke-width:0.5;" x="271.782747" xlink:href="#m3e854dca02" y="76.443461"/>
     <use style="fill:#348abd;stroke:#348abd;stroke-width:0.5;" x="158.14959" xlink:href="#m3e854dca02" y="207.849423"/>
     <use style="fill:#348abd;stroke:#348abd;stroke-width:0.5;" x="71.686156" xlink:href="#m3e854dca02" y="239.065588"/>
     <use style="fill:#348abd;stroke:#348abd;stroke-width:0.5;" x="83.463282" xlink:href="#m3e854dca02" y="126.285474"/>
     <use style="fill:#348abd;stroke:#348abd;stroke-width:0.5;" x="279.586435" xlink:href="#m3e854dca02" y="83.785399"/>
     <use style="fill:#348abd;stroke:#348abd;stroke-width:0.5;" x="74.406708" xlink:href="#m3e854dca02" y="226.38086"/>
     <use style="fill:#348abd;stroke:#348abd;stroke-width:0.5;" x="214.787185" xlink:href="#m3e854dca02" y="81.13027"/>
     <use style="fill:#348abd;stroke:#348abd;stroke-width:0.5;" x="304.486644" xlink:href="#m3e854dca02" y="158.715489"/>
     <use style="fill:#348abd;stroke:#348abd;stroke-width:0.5;" x="128.731833" xlink:href="#m3e854dca02" y="136.3874"/>
     <use style="fill:#348abd;stroke:#348abd;stroke-width:0.5;" x="101.733935" xlink:href="#m3e854dca02" y="153.738706"/>
     <use style="fill:#348abd;stroke:#348abd;stroke-width:0.5;" x="73.254053" xlink:href="#m3e854dca02" y="265.082431"/>
     <use style="fill:#348abd;stroke:#348abd;stroke-width:0.5;" x="71.292392" xlink:href="#m3e854dca02" y="263.65953"/>
     <use style="fill:#348abd;stroke:#348abd;stroke-width:0.5;" x="89.255194" xlink:href="#m3e854dca02" y="183.936586"/>
     <use style="fill:#348abd;stroke:#348abd;stroke-width:0.5;" x="76.389847" xlink:href="#m3e854dca02" y="223.251825"/>
     <use style="fill:#348abd;stroke:#348abd;stroke-width:0.5;" x="88.911545" xlink:href="#m3e854dca02" y="135.436551"/>
     <use style="fill:#348abd;stroke:#348abd;stroke-width:0.5;" x="281.347635" xlink:href="#m3e854dca02" y="68.81644"/>
     <use style="fill:#348abd;stroke:#348abd;stroke-width:0.5;" x="164.07753" xlink:href="#m3e854dca02" y="126.143858"/>
     <use style="fill:#348abd;stroke:#348abd;stroke-width:0.5;" x="289.366103" xlink:href="#m3e854dca02" y="73.139093"/>
     <use style="fill:#348abd;stroke:#348abd;stroke-width:0.5;" x="78.566288" xlink:href="#m3e854dca02" y="191.765916"/>
     <use style="fill:#348abd;stroke:#348abd;stroke-width:0.5;" x="86.198152" xlink:href="#m3e854dca02" y="156.968894"/>
     <use style="fill:#348abd;stroke:#348abd;stroke-width:0.5;" x="128.338069" xlink:href="#m3e854dca02" y="141.310235"/>
     <use style="fill:#348abd;stroke:#348abd;stroke-width:0.5;" x="95.054265" xlink:href="#m3e854dca02" y="132.988621"/>
     <use style="fill:#348abd;stroke:#348abd;stroke-width:0.5;" x="287.468876" xlink:href="#m3e854dca02" y="93.774536"/>
     <use style="fill:#348abd;stroke:#348abd;stroke-width:0.5;" x="230.244215" xlink:href="#m3e854dca02" y="79.680394"/>
     <use style="fill:#348abd;stroke:#348abd;stroke-width:0.5;" x="261.215551" xlink:href="#m3e854dca02" y="73.071657"/>
     <use style="fill:#348abd;stroke:#348abd;stroke-width:0.5;" x="116.410597" xlink:href="#m3e854dca02" y="135.456782"/>
     <use style="fill:#348abd;stroke:#348abd;stroke-width:0.5;" x="271.231477" xlink:href="#m3e854dca02" y="62.147011"/>
     <use style="fill:#348abd;stroke:#348abd;stroke-width:0.5;" x="92.999532" xlink:href="#m3e854dca02" y="127.060989"/>
     <use style="fill:#348abd;stroke:#348abd;stroke-width:0.5;" x="105.184741" xlink:href="#m3e854dca02" y="182.432761"/>
     <use style="fill:#348abd;stroke:#348abd;stroke-width:0.5;" x="76.203704" xlink:href="#m3e854dca02" y="254.245452"/>
     <use style="fill:#348abd;stroke:#348abd;stroke-width:0.5;" x="91.832558" xlink:href="#m3e854dca02" y="174.819227"/>
     <use style="fill:#348abd;stroke:#348abd;stroke-width:0.5;" x="78.859822" xlink:href="#m3e854dca02" y="170.577497"/>
     <use style="fill:#348abd;stroke:#348abd;stroke-width:0.5;" x="188.440788" xlink:href="#m3e854dca02" y="97.456547"/>
     <use style="fill:#348abd;stroke:#348abd;stroke-width:0.5;" x="327.34644" xlink:href="#m3e854dca02" y="117.559244"/>
     <use style="fill:#348abd;stroke:#348abd;stroke-width:0.5;" x="77.700007" xlink:href="#m3e854dca02" y="164.096889"/>
     <use style="fill:#348abd;stroke:#348abd;stroke-width:0.5;" x="77.635573" xlink:href="#m3e854dca02" y="194.733104"/>
     <use style="fill:#348abd;stroke:#348abd;stroke-width:0.5;" x="128.688877" xlink:href="#m3e854dca02" y="137.607993"/>
     <use style="fill:#348abd;stroke:#348abd;stroke-width:0.5;" x="108.256101" xlink:href="#m3e854dca02" y="108.9544"/>
     <use style="fill:#348abd;stroke:#348abd;stroke-width:0.5;" x="75.25867" xlink:href="#m3e854dca02" y="292.002917"/>
     <use style="fill:#348abd;stroke:#348abd;stroke-width:0.5;" x="70.483386" xlink:href="#m3e854dca02" y="257.21264"/>
     <use style="fill:#348abd;stroke:#348abd;stroke-width:0.5;" x="132.196957" xlink:href="#m3e854dca02" y="126.062935"/>
     <use style="fill:#348abd;stroke:#348abd;stroke-width:0.5;" x="135.719356" xlink:href="#m3e854dca02" y="123.985904"/>
     <use style="fill:#348abd;stroke:#348abd;stroke-width:0.5;" x="524.421786" xlink:href="#m3e854dca02" y="85.95195"/>
     <use style="fill:#348abd;stroke:#348abd;stroke-width:0.5;" x="227.938906" xlink:href="#m3e854dca02" y="87.253466"/>
     <use style="fill:#348abd;stroke:#348abd;stroke-width:0.5;" x="116.70413" xlink:href="#m3e854dca02" y="116.810704"/>
     <use style="fill:#348abd;stroke:#348abd;stroke-width:0.5;" x="74.120334" xlink:href="#m3e854dca02" y="216.339626"/>
     <use style="fill:#348abd;stroke:#348abd;stroke-width:0.5;" x="71.872299" xlink:href="#m3e854dca02" y="300.263838"/>
     <use style="fill:#348abd;stroke:#348abd;stroke-width:0.5;" x="139.51381" xlink:href="#m3e854dca02" y="119.73743"/>
     <use style="fill:#348abd;stroke:#348abd;stroke-width:0.5;" x="91.345723" xlink:href="#m3e854dca02" y="143.549113"/>
     <use style="fill:#348abd;stroke:#348abd;stroke-width:0.5;" x="72.881767" xlink:href="#m3e854dca02" y="279.891396"/>
     <use style="fill:#348abd;stroke:#348abd;stroke-width:0.5;" x="211.930606" xlink:href="#m3e854dca02" y="89.027036"/>
     <use style="fill:#348abd;stroke:#348abd;stroke-width:0.5;" x="77.793079" xlink:href="#m3e854dca02" y="207.950577"/>
     <use style="fill:#348abd;stroke:#348abd;stroke-width:0.5;" x="126.118672" xlink:href="#m3e854dca02" y="130.581153"/>
     <use style="fill:#348abd;stroke:#348abd;stroke-width:0.5;" x="144.761611" xlink:href="#m3e854dca02" y="109.149964"/>
     <use style="fill:#348abd;stroke:#348abd;stroke-width:0.5;" x="106.358874" xlink:href="#m3e854dca02" y="156.894715"/>
     <use style="fill:#348abd;stroke:#348abd;stroke-width:0.5;" x="78.8813" xlink:href="#m3e854dca02" y="158.870592"/>
     <use style="fill:#348abd;stroke:#348abd;stroke-width:0.5;" x="81.208087" xlink:href="#m3e854dca02" y="186.72844"/>
     <use style="fill:#348abd;stroke:#348abd;stroke-width:0.5;" x="111.048246" xlink:href="#m3e854dca02" y="110.869584"/>
     <use style="fill:#348abd;stroke:#348abd;stroke-width:0.5;" x="88.768358" xlink:href="#m3e854dca02" y="150.690595"/>
     <use style="fill:#348abd;stroke:#348abd;stroke-width:0.5;" x="70.648051" xlink:href="#m3e854dca02" y="290.60699"/>
     <use style="fill:#348abd;stroke:#348abd;stroke-width:0.5;" x="74.170449" xlink:href="#m3e854dca02" y="192.143558"/>
     <use style="fill:#348abd;stroke:#348abd;stroke-width:0.5;" x="95.562578" xlink:href="#m3e854dca02" y="238.674459"/>
     <use style="fill:#348abd;stroke:#348abd;stroke-width:0.5;" x="74.313636" xlink:href="#m3e854dca02" y="192.264943"/>
     <use style="fill:#348abd;stroke:#348abd;stroke-width:0.5;" x="303.026138" xlink:href="#m3e854dca02" y="83.119634"/>
     <use style="fill:#348abd;stroke:#348abd;stroke-width:0.5;" x="223.521588" xlink:href="#m3e854dca02" y="78.668852"/>
     <use style="fill:#348abd;stroke:#348abd;stroke-width:0.5;" x="84.594459" xlink:href="#m3e854dca02" y="140.831438"/>
     <use style="fill:#348abd;stroke:#348abd;stroke-width:0.5;" x="70.898628" xlink:href="#m3e854dca02" y="268.89257"/>
     <use style="fill:#348abd;stroke:#348abd;stroke-width:0.5;" x="78.358667" xlink:href="#m3e854dca02" y="296.291853"/>
     <use style="fill:#348abd;stroke:#348abd;stroke-width:0.5;" x="375.865335" xlink:href="#m3e854dca02" y="79.612958"/>
     <use style="fill:#348abd;stroke:#348abd;stroke-width:0.5;" x="204.255785" xlink:href="#m3e854dca02" y="124.262392"/>
     <use style="fill:#348abd;stroke:#348abd;stroke-width:0.5;" x="81.702082" xlink:href="#m3e854dca02" y="180.133191"/>
     <use style="fill:#348abd;stroke:#348abd;stroke-width:0.5;" x="119.782649" xlink:href="#m3e854dca02" y="104.335028"/>
     <use style="fill:#348abd;stroke:#348abd;stroke-width:0.5;" x="79.804855" xlink:href="#m3e854dca02" y="214.559314"/>
     <use style="fill:#348abd;stroke:#348abd;stroke-width:0.5;" x="94.739253" xlink:href="#m3e854dca02" y="138.194687"/>
     <use style="fill:#348abd;stroke:#348abd;stroke-width:0.5;" x="108.227463" xlink:href="#m3e854dca02" y="135.274705"/>
     <use style="fill:#348abd;stroke:#348abd;stroke-width:0.5;" x="85.367668" xlink:href="#m3e854dca02" y="160.441853"/>
     <use style="fill:#348abd;stroke:#348abd;stroke-width:0.5;" x="150.388858" xlink:href="#m3e854dca02" y="112.31946"/>
     <use style="fill:#348abd;stroke:#348abd;stroke-width:0.5;" x="207.155321" xlink:href="#m3e854dca02" y="92.560687"/>
     <use style="fill:#348abd;stroke:#348abd;stroke-width:0.5;" x="499.149291" xlink:href="#m3e854dca02" y="93.639664"/>
     <use style="fill:#348abd;stroke:#348abd;stroke-width:0.5;" x="117.520296" xlink:href="#m3e854dca02" y="135.517475"/>
     <use style="fill:#348abd;stroke:#348abd;stroke-width:0.5;" x="128.123289" xlink:href="#m3e854dca02" y="169.842444"/>
     <use style="fill:#348abd;stroke:#348abd;stroke-width:0.5;" x="71.807865" xlink:href="#m3e854dca02" y="289.457205"/>
     <use style="fill:#348abd;stroke:#348abd;stroke-width:0.5;" x="128.88218" xlink:href="#m3e854dca02" y="128.868276"/>
     <use style="fill:#348abd;stroke:#348abd;stroke-width:0.5;" x="108.957717" xlink:href="#m3e854dca02" y="134.640806"/>
     <use style="fill:#348abd;stroke:#348abd;stroke-width:0.5;" x="96.049414" xlink:href="#m3e854dca02" y="143.110778"/>
     <use style="fill:#348abd;stroke:#348abd;stroke-width:0.5;" x="76.218023" xlink:href="#m3e854dca02" y="183.62638"/>
     <use style="fill:#348abd;stroke:#348abd;stroke-width:0.5;" x="209.961785" xlink:href="#m3e854dca02" y="122.495566"/>
     <use style="fill:#348abd;stroke:#348abd;stroke-width:0.5;" x="77.585458" xlink:href="#m3e854dca02" y="220.844357"/>
     <use style="fill:#348abd;stroke:#348abd;stroke-width:0.5;" x="114.06949" xlink:href="#m3e854dca02" y="124.714213"/>
     <use style="fill:#348abd;stroke:#348abd;stroke-width:0.5;" x="175.80454" xlink:href="#m3e854dca02" y="126.74404"/>
     <use style="fill:#348abd;stroke:#348abd;stroke-width:0.5;" x="70.469067" xlink:href="#m3e854dca02" y="353.652989"/>
     <use style="fill:#348abd;stroke:#348abd;stroke-width:0.5;" x="330.475074" xlink:href="#m3e854dca02" y="82.445273"/>
     <use style="fill:#348abd;stroke:#348abd;stroke-width:0.5;" x="157.612639" xlink:href="#m3e854dca02" y="117.174859"/>
     <use style="fill:#348abd;stroke:#348abd;stroke-width:0.5;" x="205.651858" xlink:href="#m3e854dca02" y="97.483521"/>
     <use style="fill:#348abd;stroke:#348abd;stroke-width:0.5;" x="79.668828" xlink:href="#m3e854dca02" y="187.187006"/>
     <use style="fill:#348abd;stroke:#348abd;stroke-width:0.5;" x="73.075069" xlink:href="#m3e854dca02" y="267.476412"/>
     <use style="fill:#348abd;stroke:#348abd;stroke-width:0.5;" x="120.133457" xlink:href="#m3e854dca02" y="233.825804"/>
     <use style="fill:#348abd;stroke:#348abd;stroke-width:0.5;" x="80.248735" xlink:href="#m3e854dca02" y="278.630341"/>
     <use style="fill:#348abd;stroke:#348abd;stroke-width:0.5;" x="234.367999" xlink:href="#m3e854dca02" y="75.701664"/>
     <use style="fill:#348abd;stroke:#348abd;stroke-width:0.5;" x="88.224248" xlink:href="#m3e854dca02" y="131.417361"/>
     <use style="fill:#348abd;stroke:#348abd;stroke-width:0.5;" x="80.184301" xlink:href="#m3e854dca02" y="219.751893"/>
     <use style="fill:#348abd;stroke:#348abd;stroke-width:0.5;" x="107.411298" xlink:href="#m3e854dca02" y="153.178986"/>
     <use style="fill:#348abd;stroke:#348abd;stroke-width:0.5;" x="95.555419" xlink:href="#m3e854dca02" y="282.400018"/>
     <use style="fill:#348abd;stroke:#348abd;stroke-width:0.5;" x="271.811384" xlink:href="#m3e854dca02" y="72.32986"/>
     <use style="fill:#348abd;stroke:#348abd;stroke-width:0.5;" x="312.948993" xlink:href="#m3e854dca02" y="71.318319"/>
     <use style="fill:#348abd;stroke:#348abd;stroke-width:0.5;" x="94.939715" xlink:href="#m3e854dca02" y="116.325164"/>
     <use style="fill:#348abd;stroke:#348abd;stroke-width:0.5;" x="235.191324" xlink:href="#m3e854dca02" y="98.090446"/>
     <use style="fill:#348abd;stroke:#348abd;stroke-width:0.5;" x="73.934191" xlink:href="#m3e854dca02" y="182.048376"/>
     <use style="fill:#348abd;stroke:#348abd;stroke-width:0.5;" x="72.681305" xlink:href="#m3e854dca02" y="273.491711"/>
     <use style="fill:#348abd;stroke:#348abd;stroke-width:0.5;" x="106.702522" xlink:href="#m3e854dca02" y="132.476107"/>
     <use style="fill:#348abd;stroke:#348abd;stroke-width:0.5;" x="86.405773" xlink:href="#m3e854dca02" y="209.710659"/>
     <use style="fill:#348abd;stroke:#348abd;stroke-width:0.5;" x="73.139503" xlink:href="#m3e854dca02" y="249.38331"/>
     <use style="fill:#348abd;stroke:#348abd;stroke-width:0.5;" x="101.748254" xlink:href="#m3e854dca02" y="133.224648"/>
     <use style="fill:#348abd;stroke:#348abd;stroke-width:0.5;" x="141.912191" xlink:href="#m3e854dca02" y="148.579845"/>
     <use style="fill:#348abd;stroke:#348abd;stroke-width:0.5;" x="106.000906" xlink:href="#m3e854dca02" y="117.383911"/>
     <use style="fill:#348abd;stroke:#348abd;stroke-width:0.5;" x="115.472723" xlink:href="#m3e854dca02" y="138.619535"/>
     <use style="fill:#348abd;stroke:#348abd;stroke-width:0.5;" x="90.314777" xlink:href="#m3e854dca02" y="179.654394"/>
     <use style="fill:#348abd;stroke:#348abd;stroke-width:0.5;" x="73.075069" xlink:href="#m3e854dca02" y="286.19667"/>
     <use style="fill:#348abd;stroke:#348abd;stroke-width:0.5;" x="93.257269" xlink:href="#m3e854dca02" y="153.590346"/>
     <use style="fill:#348abd;stroke:#348abd;stroke-width:0.5;" x="281.634009" xlink:href="#m3e854dca02" y="110.613327"/>
     <use style="fill:#348abd;stroke:#348abd;stroke-width:0.5;" x="271.840022" xlink:href="#m3e854dca02" y="84.468356"/>
     <use style="fill:#348abd;stroke:#348abd;stroke-width:0.5;" x="351.409005" xlink:href="#m3e854dca02" y="92.830431"/>
     <use style="fill:#348abd;stroke:#348abd;stroke-width:0.5;" x="131.860468" xlink:href="#m3e854dca02" y="106.472752"/>
     <use style="fill:#348abd;stroke:#348abd;stroke-width:0.5;" x="78.473217" xlink:href="#m3e854dca02" y="158.924541"/>
     <use style="fill:#348abd;stroke:#348abd;stroke-width:0.5;" x="93.701148" xlink:href="#m3e854dca02" y="155.964097"/>
     <use style="fill:#348abd;stroke:#348abd;stroke-width:0.5;" x="134.308965" xlink:href="#m3e854dca02" y="122.286514"/>
     <use style="fill:#348abd;stroke:#348abd;stroke-width:0.5;" x="78.057975" xlink:href="#m3e854dca02" y="113.21636"/>
     <use style="fill:#348abd;stroke:#348abd;stroke-width:0.5;" x="121.078491" xlink:href="#m3e854dca02" y="132.422158"/>
     <use style="fill:#348abd;stroke:#348abd;stroke-width:0.5;" x="82.639957" xlink:href="#m3e854dca02" y="203.398641"/>
     <use style="fill:#348abd;stroke:#348abd;stroke-width:0.5;" x="74.177609" xlink:href="#m3e854dca02" y="328.843252"/>
     <use style="fill:#348abd;stroke:#348abd;stroke-width:0.5;" x="72.101398" xlink:href="#m3e854dca02" y="314.182647"/>
    </g>
   </g>
   <g id="patch_3">
    <path d="M 46.08 368.28 
L 46.08 47.52 
" style="fill:none;stroke:#f0f0f0;stroke-linecap:square;stroke-linejoin:miter;stroke-width:3;"/>
   </g>
   <g id="patch_4">
    <path d="M 547.2 368.28 
L 547.2 47.52 
" style="fill:none;stroke:#f0f0f0;stroke-linecap:square;stroke-linejoin:miter;stroke-width:3;"/>
   </g>
   <g id="patch_5">
    <path d="M 46.08 368.28 
L 547.2 368.28 
" style="fill:none;stroke:#f0f0f0;stroke-linecap:square;stroke-linejoin:miter;stroke-width:3;"/>
   </g>
   <g id="patch_6">
    <path d="M 46.08 47.52 
L 547.2 47.52 
" style="fill:none;stroke:#f0f0f0;stroke-linecap:square;stroke-linejoin:miter;stroke-width:3;"/>
   </g>
   <g id="text_15">
    <!-- Lebenserwartung und Wohlstand -->
    <defs>
     <path d="M 7.328125 0 
L 7.328125 71.578125 
L 16.796875 71.578125 
L 16.796875 8.453125 
L 52.046875 8.453125 
L 52.046875 0 
z
" id="ArialMT-4c"/>
     <path d="M 14.703125 0 
L 6.546875 0 
L 6.546875 71.578125 
L 15.328125 71.578125 
L 15.328125 46.046875 
Q 20.90625 53.03125 29.546875 53.03125 
Q 34.328125 53.03125 38.59375 51.09375 
Q 42.875 49.171875 45.625 45.671875 
Q 48.390625 42.1875 49.953125 37.25 
Q 51.515625 32.328125 51.515625 26.703125 
Q 51.515625 13.375 44.921875 6.09375 
Q 38.328125 -1.171875 29.109375 -1.171875 
Q 19.921875 -1.171875 14.703125 6.5 
z
M 14.59375 26.3125 
Q 14.59375 17 17.140625 12.84375 
Q 21.296875 6.0625 28.375 6.0625 
Q 34.125 6.0625 38.328125 11.0625 
Q 42.53125 16.0625 42.53125 25.984375 
Q 42.53125 36.140625 38.5 40.96875 
Q 34.46875 45.796875 28.765625 45.796875 
Q 23 45.796875 18.796875 40.796875 
Q 14.59375 35.796875 14.59375 26.3125 
z
" id="ArialMT-62"/>
     <path d="M 3.078125 15.484375 
L 11.765625 16.84375 
Q 12.5 11.625 15.84375 8.84375 
Q 19.1875 6.0625 25.203125 6.0625 
Q 31.25 6.0625 34.171875 8.515625 
Q 37.109375 10.984375 37.109375 14.3125 
Q 37.109375 17.28125 34.515625 19 
Q 32.71875 20.171875 25.53125 21.96875 
Q 15.875 24.421875 12.140625 26.203125 
Q 8.40625 27.984375 6.46875 31.125 
Q 4.546875 34.28125 4.546875 38.09375 
Q 4.546875 41.546875 6.125 44.5 
Q 7.71875 47.46875 10.453125 49.421875 
Q 12.5 50.921875 16.03125 51.96875 
Q 19.578125 53.03125 23.640625 53.03125 
Q 29.734375 53.03125 34.34375 51.265625 
Q 38.96875 49.515625 41.15625 46.5 
Q 43.359375 43.5 44.1875 38.484375 
L 35.59375 37.3125 
Q 35.015625 41.3125 32.203125 43.546875 
Q 29.390625 45.796875 24.265625 45.796875 
Q 18.21875 45.796875 15.625 43.796875 
Q 13.03125 41.796875 13.03125 39.109375 
Q 13.03125 37.40625 14.109375 36.03125 
Q 15.1875 34.625 17.484375 33.6875 
Q 18.796875 33.203125 25.25 31.453125 
Q 34.578125 28.953125 38.25 27.359375 
Q 41.9375 25.78125 44.03125 22.75 
Q 46.140625 19.734375 46.140625 15.234375 
Q 46.140625 10.84375 43.578125 6.953125 
Q 41.015625 3.078125 36.171875 0.953125 
Q 31.34375 -1.171875 25.25 -1.171875 
Q 15.140625 -1.171875 9.84375 3.03125 
Q 4.546875 7.234375 3.078125 15.484375 
z
" id="ArialMT-73"/>
     <path d="M 16.15625 0 
L 0.296875 51.859375 
L 9.375 51.859375 
L 17.625 21.921875 
L 20.703125 10.796875 
Q 20.90625 11.625 23.390625 21.484375 
L 31.640625 51.859375 
L 40.671875 51.859375 
L 48.4375 21.78125 
L 51.03125 11.859375 
L 54 21.875 
L 62.890625 51.859375 
L 71.4375 51.859375 
L 55.21875 0 
L 46.09375 0 
L 37.84375 31.0625 
L 35.84375 39.890625 
L 25.34375 0 
z
" id="ArialMT-77"/>
     <path d="M 40.578125 0 
L 40.578125 7.625 
Q 34.515625 -1.171875 24.125 -1.171875 
Q 19.53125 -1.171875 15.546875 0.578125 
Q 11.578125 2.34375 9.640625 5 
Q 7.71875 7.671875 6.9375 11.53125 
Q 6.390625 14.109375 6.390625 19.734375 
L 6.390625 51.859375 
L 15.1875 51.859375 
L 15.1875 23.09375 
Q 15.1875 16.21875 15.71875 13.8125 
Q 16.546875 10.359375 19.234375 8.375 
Q 21.921875 6.390625 25.875 6.390625 
Q 29.828125 6.390625 33.296875 8.421875 
Q 36.765625 10.453125 38.203125 13.9375 
Q 39.65625 17.4375 39.65625 24.078125 
L 39.65625 51.859375 
L 48.4375 51.859375 
L 48.4375 0 
z
" id="ArialMT-75"/>
     <path id="ArialMT-20"/>
     <path d="M 20.21875 0 
L 1.21875 71.578125 
L 10.9375 71.578125 
L 21.828125 24.65625 
Q 23.578125 17.28125 24.859375 10.015625 
Q 27.59375 21.484375 28.078125 23.25 
L 41.703125 71.578125 
L 53.125 71.578125 
L 63.375 35.359375 
Q 67.234375 21.875 68.953125 10.015625 
Q 70.3125 16.796875 72.515625 25.59375 
L 83.734375 71.578125 
L 93.265625 71.578125 
L 73.640625 0 
L 64.5 0 
L 49.421875 54.546875 
Q 47.515625 61.375 47.171875 62.9375 
Q 46.046875 58.015625 45.0625 54.546875 
L 29.890625 0 
z
" id="ArialMT-57"/>
     <path d="M 3.328125 25.921875 
Q 3.328125 40.328125 11.328125 47.265625 
Q 18.015625 53.03125 27.640625 53.03125 
Q 38.328125 53.03125 45.109375 46.015625 
Q 51.90625 39.015625 51.90625 26.65625 
Q 51.90625 16.65625 48.90625 10.90625 
Q 45.90625 5.171875 40.15625 2 
Q 34.421875 -1.171875 27.640625 -1.171875 
Q 16.75 -1.171875 10.03125 5.8125 
Q 3.328125 12.796875 3.328125 25.921875 
z
M 12.359375 25.921875 
Q 12.359375 15.96875 16.703125 11.015625 
Q 21.046875 6.0625 27.640625 6.0625 
Q 34.1875 6.0625 38.53125 11.03125 
Q 42.875 16.015625 42.875 26.21875 
Q 42.875 35.84375 38.5 40.796875 
Q 34.125 45.75 27.640625 45.75 
Q 21.046875 45.75 16.703125 40.8125 
Q 12.359375 35.890625 12.359375 25.921875 
z
" id="ArialMT-6f"/>
     <path d="M 6.59375 0 
L 6.59375 71.578125 
L 15.375 71.578125 
L 15.375 45.90625 
Q 21.53125 53.03125 30.90625 53.03125 
Q 36.671875 53.03125 40.921875 50.75 
Q 45.171875 48.484375 47 44.484375 
Q 48.828125 40.484375 48.828125 32.859375 
L 48.828125 0 
L 40.046875 0 
L 40.046875 32.859375 
Q 40.046875 39.453125 37.1875 42.453125 
Q 34.328125 45.453125 29.109375 45.453125 
Q 25.203125 45.453125 21.75 43.421875 
Q 18.3125 41.40625 16.84375 37.9375 
Q 15.375 34.46875 15.375 28.375 
L 15.375 0 
z
" id="ArialMT-68"/>
    </defs>
    <g style="fill:#262626;" transform="translate(120.54 41.52)scale(0.24 -0.24)">
     <use xlink:href="#ArialMT-4c"/>
     <use x="55.615234" xlink:href="#ArialMT-65"/>
     <use x="111.230469" xlink:href="#ArialMT-62"/>
     <use x="166.845703" xlink:href="#ArialMT-65"/>
     <use x="222.460938" xlink:href="#ArialMT-6e"/>
     <use x="278.076172" xlink:href="#ArialMT-73"/>
     <use x="328.076172" xlink:href="#ArialMT-65"/>
     <use x="383.691406" xlink:href="#ArialMT-72"/>
     <use x="416.992188" xlink:href="#ArialMT-77"/>
     <use x="489.208984" xlink:href="#ArialMT-61"/>
     <use x="544.824219" xlink:href="#ArialMT-72"/>
     <use x="578.125" xlink:href="#ArialMT-74"/>
     <use x="605.908203" xlink:href="#ArialMT-75"/>
     <use x="661.523438" xlink:href="#ArialMT-6e"/>
     <use x="717.138672" xlink:href="#ArialMT-67"/>
     <use x="772.753906" xlink:href="#ArialMT-20"/>
     <use x="800.537109" xlink:href="#ArialMT-75"/>
     <use x="856.152344" xlink:href="#ArialMT-6e"/>
     <use x="911.767578" xlink:href="#ArialMT-64"/>
     <use x="967.382812" xlink:href="#ArialMT-20"/>
     <use x="995.166016" xlink:href="#ArialMT-57"/>
     <use x="1089.535156" xlink:href="#ArialMT-6f"/>
     <use x="1145.150391" xlink:href="#ArialMT-68"/>
     <use x="1200.765625" xlink:href="#ArialMT-6c"/>
     <use x="1222.982422" xlink:href="#ArialMT-73"/>
     <use x="1272.982422" xlink:href="#ArialMT-74"/>
     <use x="1300.765625" xlink:href="#ArialMT-61"/>
     <use x="1356.380859" xlink:href="#ArialMT-6e"/>
     <use x="1411.996094" xlink:href="#ArialMT-64"/>
    </g>
   </g>
  </g>
 </g>
 <defs>
  <clipPath id="p1d95a87ccf">
   <rect height="320.76" width="501.12" x="46.08" y="47.52"/>
  </clipPath>
 </defs>
</svg>
